<svg xmlns="http://www.w3.org/2000/svg" xmlns:xlink="http://www.w3.org/1999/xlink" width="509.781" height="524.955" viewBox="0 0 509.781 524.955">
  <defs>
    <linearGradient id="linear-gradient" x1="0.298" y1="0.698" x2="1.91" y2="-1.66" gradientUnits="objectBoundingBox">
      <stop offset="0" stop-opacity="0"/>
      <stop offset="1"/>
    </linearGradient>
    <linearGradient id="linear-gradient-2" x1="0.165" y1="0.877" x2="2.627" y2="-2.12" xlink:href="#linear-gradient"/>
  </defs>
  <g id="Group_1" data-name="Group 1" transform="translate(-328.006 -269.728)">
    <path id="Path_1" data-name="Path 1" d="M77.154,288.682,302.185,418.6a28.617,28.617,0,0,0,28.6,0L566.668,282.833a12.071,12.071,0,0,0,.2-20.786L334.806,122.416a12.071,12.071,0,0,0-12.365,0L77.095,267.9a12.071,12.071,0,0,0,.059,20.786Z" transform="translate(265.089 372.257)" fill="#0c728a"/>
    <path id="Path_2" data-name="Path 2" d="M346.42,90.482,201.528,8.183a9.441,9.441,0,0,0-9.245,0h0l-9.814,5.2,4.966,1.492a9.809,9.809,0,0,0-.157,1.609l-2.787,290.843a22.807,22.807,0,0,0,11.6,20.079l145.52,82.161a9.775,9.775,0,0,0,.9.432l-1.825,4.534,9.107-4.416a9.7,9.7,0,0,0,1.727-.9h0a9.421,9.421,0,0,0,4.259-7.851V106.616a18.548,18.548,0,0,0-9.362-16.134Z" transform="translate(372.223 262.754)" fill="#12192c"/>
    <path id="Path_3" data-name="Path 3" d="M221.167,204.73,118.73,257.842s62.318,40.512,103.124,59.531L347.844,242.3" transform="translate(310.856 453.147)" opacity="0.62" fill="url(#linear-gradient)"/>
    <path id="Path_4" data-name="Path 4" d="M190.381,329.656,335.9,411.817a9.539,9.539,0,0,0,14.23-8.3V108.884a18.548,18.548,0,0,0-9.382-16.134L195.8,10.471a9.539,9.539,0,0,0-14.25,8.126l-2.768,290.882a22.807,22.807,0,0,0,11.6,20.177Z" transform="translate(368.669 264.922)" fill="#394974"/>
    <path id="Path_5" data-name="Path 5" d="M183.99,300.593l149.386,84.34V104.65L186.64,21.35Z" transform="translate(373.686 276.595)" fill="#e2f2ee"/>
    <path id="Path_6" data-name="Path 6" d="M239.68,125.77v61.062l25.693,16.193V141.237Z" transform="translate(427.302 377.127)" fill="#429db2"/>
    <path id="Path_7" data-name="Path 7" d="M240.71,132.87v12.189l5.555,3.67V136.4Z" transform="translate(428.294 383.963)" fill="#5f5cea"/>
    <path id="Path_8" data-name="Path 8" d="M244.69,135.06v12.189l5.535,3.67V138.593Z" transform="translate(432.126 386.071)" fill="#5f5cea"/>
    <path id="Path_9" data-name="Path 9" d="M248.66,137.39v12.189l5.555,3.67V140.923Z" transform="translate(435.948 388.314)" fill="#5f5cea"/>
    <path id="Path_10" data-name="Path 10" d="M240.71,140.95v12.189l5.555,3.69V144.483Z" transform="translate(428.294 391.742)" fill="#5f5cea"/>
    <path id="Path_11" data-name="Path 11" d="M244.69,143.14v12.189l5.535,3.69V146.673Z" transform="translate(432.126 393.85)" fill="#5f5cea"/>
    <path id="Path_12" data-name="Path 12" d="M248.66,145.47v12.208l5.555,3.67V149Z" transform="translate(435.948 396.093)" fill="#5f5cea"/>
    <path id="Path_13" data-name="Path 13" d="M240.71,149.01V161.2l5.555,3.67V152.543Z" transform="translate(428.294 399.502)" fill="#5f5cea"/>
    <path id="Path_14" data-name="Path 14" d="M244.69,151.2v12.189l5.535,3.67V154.733Z" transform="translate(432.126 401.61)" fill="#5f5cea"/>
    <path id="Path_15" data-name="Path 15" d="M248.66,153.53v12.189l5.555,3.69V157.063Z" transform="translate(435.948 403.853)" fill="#5f5cea"/>
    <path id="Path_16" data-name="Path 16" d="M239,148.513a22.1,22.1,0,0,1,10.677,18.077q0,.353,0,.687a14.328,14.328,0,0,1-8.381,12.68,15.231,15.231,0,0,1-9.5.118c-7.262-1.963-16.252-6.811-19.628-13.877a14.917,14.917,0,0,1-.471-11.777c2.257-5.888,8.381-9.068,14.426-9.5A21.414,21.414,0,0,1,239,148.513Z" transform="translate(399.407 395.544)" fill="#f8951d"/>
    <path id="Path_17" data-name="Path 17" d="M246.436,155.831l-3.258,1.374a8.067,8.067,0,0,1-5.574-4.711c-.314-.765-1.59-.432-1.256.353a9.421,9.421,0,0,0,4.966,5.084l-1.08.393c-3.533,1.256-7.851,2.768-11.62,1.963a4.475,4.475,0,0,1-3.592-6.2c1.433-3,5.378-4.4,8.283-5.4,1.335-.451,2.669-.864,4.043-1.2a20.943,20.943,0,0,0-11.247-2.532c-6.045.432-12.169,3.651-14.426,9.5a14.917,14.917,0,0,0,.471,11.777c3.415,7.066,12.4,11.777,19.628,13.877a15.231,15.231,0,0,0,9.5-.118,14.328,14.328,0,0,0,8.381-12.68q0-.353,0-.687a19.785,19.785,0,0,0-3.219-10.8Z" transform="translate(399.388 395.566)" fill="#393b5b"/>
    <path id="Path_18" data-name="Path 18" d="M256.159,157.954c-.628-.471-40.983.608-47.283,87.638l-23.553-13.543a23.278,23.278,0,0,0-13.406,23.239c1.2,17.272,54.329,46.027,77.117,38.294s12.719-62.239,12.719-62.239l13.268-31.188" transform="translate(361.97 408.065)" fill="#393b5b"/>
    <path id="Path_19" data-name="Path 19" d="M214.107,244.754s24.4,8.2,28.146,3.317,21.453-43.593,11.09-56.174-32.68,0-39.923,5.888" transform="translate(402.02 435.597)" fill="#393b5b"/>
    <path id="Path_20" data-name="Path 20" d="M237.931,223.226c3-1.138,16.075,3.926,18.195,2.709s2.65,14.721-13.17,10.913a120.884,120.884,0,0,1-28.166-10.815s4.083-11.777,10.4-12.522" transform="translate(403.339 461.6)" fill="#393b5b"/>
    <path id="Path_21" data-name="Path 21" d="M256.624,155.735l-.864.962v-.726a18.035,18.035,0,0,1,1.963-2.826,2.512,2.512,0,0,0-.9-3.926l.177-.157c2.257-2.1-1.138-5.476-3.376-3.376l-1.806,1.629a2.611,2.611,0,0,0-3.435-.216c-1.237.962-2.767,1.845-3.337,3.376a16.409,16.409,0,0,0-.2,5.515v4.181c-.412-.746-.844-1.492-1.3-2.2-1.649-2.571-5.751-.236-4.141,2.414a40.667,40.667,0,0,1,3.2,6.359l.2.53c-.275,1.472-.569,2.925-.9,4.4a34.737,34.737,0,0,1-.942,4.455,2.1,2.1,0,0,0-.471,2.9,2.277,2.277,0,0,0,3.454.785,2.591,2.591,0,0,0,3.219-.177,2.375,2.375,0,0,0,1.551,0,2.316,2.316,0,0,0,3.082.726c2.179-1.178,2.669-4.554,3.219-6.732a27.85,27.85,0,0,0,.942-8.989s0-.137,0-.216a29.144,29.144,0,0,1,3.926-5.182C262.139,156.873,258.763,153.477,256.624,155.735Z" transform="translate(426.689 395.662)" fill="#f8951d"/>
    <path id="Path_22" data-name="Path 22" d="M243.253,155.432l.707.2a15.8,15.8,0,0,1,.2-2.964c.412-2.336,2.61-4.4,4.24-6.026a.432.432,0,0,0-.608-.608,17.056,17.056,0,0,0-4.3,5.614,10.856,10.856,0,0,0-.451,3.729Z" transform="translate(430.52 396.535)" fill="#393b5b"/>
    <path id="Path_23" data-name="Path 23" d="M250.644,146.9c-1.276,1.963-3.062,3.4-4.318,5.26a9.54,9.54,0,0,0-1.256,4.141,9.373,9.373,0,0,1,.824.589,9.559,9.559,0,0,1,1.963-5.162,45.13,45.13,0,0,0,3.553-4.4C251.7,146.861,250.958,146.429,250.644,146.9Z" transform="translate(432.492 397.274)" fill="#393b5b"/>
    <path id="Path_24" data-name="Path 24" d="M248,151.088q-.844,1.825-1.531,3.71l.314.451a1.3,1.3,0,0,1,.216.628c.51-1.472,1.1-2.925,1.747-4.357C248.982,151.088,248.236,150.656,248,151.088Z" transform="translate(433.84 401.33)" fill="#393b5b"/>
    <path id="Path_25" data-name="Path 25" d="M241.319,168.436a9.48,9.48,0,0,0,3.926,8.911c4.77,2.944,24.966-20.452,24.966-20.452s9.284-.746,11.149,10.6-28.087,39.059-43.75,41-26.929-14.878-26.929-14.878,2.1-32.523,11.659-34.7" transform="translate(399.382 407.083)" fill="#393b5b"/>
    <path id="Path_26" data-name="Path 26" d="M74.08,150.305l8.931,4.416,5.221-4.985L95.69,141.2,81.166,138.45Z" transform="translate(267.868 389.335)" fill="#467ec1"/>
    <path id="Path_27" data-name="Path 27" d="M199.058,44.449,149.773,67.766l-7.046,21.375L70.2,128.612a6.065,6.065,0,0,0-3.18,6.1L80.762,241.1l134.469-78.511-8.047-90.758c-.2-3.769-1.963-17.174-3.1-24.515a3.651,3.651,0,0,0-5.025-2.866Z" transform="translate(261.029 298.561)" fill="#12192c"/>
    <path id="Path_28" data-name="Path 28" d="M208.271,48.995,154.8,76.63,147.68,94.3,81.908,132.02a6.516,6.516,0,0,0-3.278,5.614v103.5L213.1,162.619V55.2l-.275-3.533a3.18,3.18,0,0,0-4.554-2.669Z" transform="translate(272.249 302.907)" fill="#0c728a"/>
    <path id="Path_29" data-name="Path 29" d="M167.159,227.808a23.846,23.846,0,0,0,8.342,1.747,4.1,4.1,0,0,0,3.513-6.183h0a6.909,6.909,0,0,1,2.139-6.987c1.315-.962,4.711.471,6.987,1.61a4.083,4.083,0,0,0,4.259-.393l6.2-4.613a4.063,4.063,0,0,0-.451-6.811c-7.537-4.2-20.511-11.07-22.768-9.814-3.219,1.963-12.974,19.216-13.013,23.651a9.814,9.814,0,0,0,3.2,6.791,4.161,4.161,0,0,0,1.59,1Z" transform="translate(352.871 444.947)" fill="#393b5b"/>
    <path id="Path_30" data-name="Path 30" d="M227.8,149.057a2.885,2.885,0,0,0-1.472-.667c-.216,0-.491,0-.53.294a1.452,1.452,0,0,0,0,.491.412.412,0,0,0,0,.373,2.709,2.709,0,0,0,1.138,1.138.962.962,0,0,0,1.335-.236C228.589,149.921,228.2,149.371,227.8,149.057Z" transform="translate(413.898 398.905)" fill="#393b5b"/>
    <path id="Path_31" data-name="Path 31" d="M224.107,150.868a2.728,2.728,0,0,0-1.452-1,.667.667,0,0,0-.707,1h0a1.963,1.963,0,0,0,.589,1.609,1.256,1.256,0,0,0,1.472,0A1.158,1.158,0,0,0,224.107,150.868Z" transform="translate(410.136 400.313)" fill="#393b5b"/>
    <path id="Path_32" data-name="Path 32" d="M227.608,131.717s13.111-8.518,13.229-8.617-8.734-6.85-8.734-6.85l-5.1,9.716" transform="translate(415.095 367.961)" fill="#3d65af"/>
    <path id="Path_33" data-name="Path 33" d="M201.38,75.545l11.7-7.635,2.9,15.447-11.855-2.395" transform="translate(390.429 321.421)" fill="#3d65af"/>
    <path id="Path_34" data-name="Path 34" d="M213.347,67.994a4.161,4.161,0,0,0-6.242,3.513l-1.3,65.929a5.888,5.888,0,0,0,2.884,5.063l46.381,27.656a5.888,5.888,0,0,0,8.931-5.064V100.635a5.888,5.888,0,0,0-3.062-5.182Z" transform="translate(394.694 320.965)" fill="#12192c"/>
    <path id="Path_35" data-name="Path 35" d="M207,72.174a4.161,4.161,0,0,0-6.242,3.513l-1.3,65.929a5.888,5.888,0,0,0,2.884,5.063l46.381,27.754a5.888,5.888,0,0,0,8.931-5.064V104.815a5.888,5.888,0,0,0-3.062-5.182Z" transform="translate(388.58 324.989)" fill="#394974"/>
    <ellipse id="Ellipse_1" data-name="Ellipse 1" cx="9.99" cy="15.859" rx="9.99" ry="15.859" transform="matrix(0.997, -0.079, 0.079, 0.997, 603.846, 421.847)" fill="#0c728a"/>
    <rect id="Rectangle_1" data-name="Rectangle 1" width="7.537" height="31.306" rx="1.42" transform="translate(609.905 439.107)" fill="#0c728a"/>
    <ellipse id="Ellipse_2" data-name="Ellipse 2" cx="4.789" cy="2.885" rx="4.789" ry="2.885" transform="translate(635.833 412.688)" fill="#0c728a"/>
    <path id="Path_36" data-name="Path 36" d="M229.812,55.652c-22.434-5.4-22.258,20.57-22.258,20.57v9.284a9.6,9.6,0,0,0,.373,4.043,5.417,5.417,0,0,0,4.22,1.59c1.335,0,3.258-.216,3.926-1.433a8.166,8.166,0,0,0,.334-3.513c-.137-2.159-.177-4.338-.1-6.5.137-4.671.55-10.363,3.553-14.191a7.2,7.2,0,0,1,8.381-2.081C239.764,67.252,239.45,81.09,239.45,81.09v25.516h9.578V80.422S247.32,59.872,229.812,55.652Z" transform="translate(396.305 308.909)" fill="#0c728a"/>
    <path id="Path_37" data-name="Path 37" d="M168.416,176,94.459,224.107s-15.7-2.375,25.045,16.664l80.748-52.5" transform="translate(284.625 425.487)" opacity="0.62" fill="url(#linear-gradient-2)"/>
    <path id="Path_38" data-name="Path 38" d="M125,171.81s3.553,21.433,25.32,23.377c28.97,2.591,30.462-23.377,30.462-23.377" transform="translate(316.892 421.453)" fill="#68e1fd"/>
    <path id="Path_39" data-name="Path 39" d="M142.665,172H125s3.219,19.372,22.277,22.945A23.553,23.553,0,0,1,142.665,172Z" transform="translate(316.892 421.636)" fill="#393b5b" opacity="0.37"/>
    <ellipse id="Ellipse_3" data-name="Ellipse 3" cx="27.891" cy="8.283" rx="27.891" ry="8.283" transform="translate(441.892 584.98)" fill="#393b5b"/>
    <path id="Path_40" data-name="Path 40" d="M181.787,172.078c-5.182-1.531-11.109.51-15.408,3.4a30.092,30.092,0,0,0-3.926,3.239,13.4,13.4,0,0,0-1.609.844c2.277-6.713,3.67-13.6.353-20.373-1.727-3.533-6.929-8.989-11.011-5.3a8.185,8.185,0,0,0-2.081,6.2,34.409,34.409,0,0,0,1.178,8.5c.785,3.14,1.806,6.222,2.571,9.362q.216.864.393,1.727a83.5,83.5,0,0,0-8.008-7.2,20.317,20.317,0,0,0-1.845-1.256,17.939,17.939,0,0,0-10.4-5.143,9.814,9.814,0,0,0-7.125,1.394,6.242,6.242,0,0,0-1.963,6.615c1.237,5.574,6.242,9.814,10.913,12.581a36.253,36.253,0,0,0,17.076,5.1,1.55,1.55,0,0,0,1.08.451,73.779,73.779,0,0,0,18.744-1.845c5.162-1.2,11.5-2.787,15.054-7.066S186.871,173.589,181.787,172.078Z" transform="translate(314.611 403.009)" fill="#d9e021"/>
    <path id="Path_41" data-name="Path 41" d="M174.864,175.875c-5.417,5.515-12.758,8.126-19.49,11.659a163.454,163.454,0,0,0-2.571-32.268c-.216-1.237-2.1-.707-1.963.51a160.614,160.614,0,0,1,2.493,31.875q-13.406-9.166-26.478-18.8c-1.021-.746-1.963.942-.981,1.688q13.013,9.6,26.36,18.725l-1.217.765c-1.06.687,0,2.375.981,1.688l1.256-.785v.608a.982.982,0,0,0,1.963,0v-.255l.687.471c1.04.707,1.963-.981.981-1.688l-.942-.648c6.968-3.749,14.623-6.418,20.256-12.169C177.14,176.366,175.747,175.051,174.864,175.875Z" transform="translate(317.334 404.846)" fill="#393b5b"/>
  </g>
</svg>
